<?xml version="1.0" ?><!DOCTYPE svg  PUBLIC '-//W3C//DTD SVG 1.1//EN'  'http://www.w3.org/Graphics/SVG/1.1/DTD/svg11.dtd'><svg enable-background="new 0 0 512 512" id="Layer_1" version="1.1" viewBox="0 0 512 512" xml:space="preserve" xmlns="http://www.w3.org/2000/svg" xmlns:xlink="http://www.w3.org/1999/xlink"><g><path d="M500.5,253.3c0,66.3-26.4,126.4-69.2,170.4c-5,5.2-10.3,10.1-15.7,14.8c-5.5,4.7-11.2,9.2-17,13.4   c-36.4,26.1-80.2,42.5-127.7,45.4c-4.9,0.3-9.9,0.5-14.8,0.5s-9.9-0.2-14.8-0.5c-47.4-2.8-91.1-19.2-127.4-45.2   c-6-4.3-11.7-8.8-17.3-13.6c-5.4-4.6-10.5-9.5-15.5-14.5c-43-44-69.5-104.3-69.5-170.7c0-2,0-4,0.1-6c0.2-7.4,0.7-14.7,1.5-21.9   c0-0.4,0.1-0.8,0.1-1.1c1.8-15.1,5-29.8,9.4-44C53.7,81,146.4,8.9,256,8.9S458.3,81,489.4,180.4c2.4,7.8,4.5,15.7,6.1,23.8   c0.1,0.4,0.2,0.8,0.3,1.3c2.2,10.8,3.6,21.9,4.3,33.2c0,0.2,0,0.5,0,0.7c0.2,2.7,0.3,5.4,0.3,8   C500.4,249.4,500.5,251.3,500.5,253.3z" fill="#E9B435"/><path d="M113.8,140.5v251.6c-9.3,7.2-14.7,15.6-14.7,25.1c0,0.1,0,0.3,0,0.4c0,0.1,0,0.3,0,0.4c0,0.1,0,0.3,0,0.4   c0,0.1,0,0.3,0,0.4c0,0.1,0,0.3,0,0.4c0,0.1,0,0.3,0,0.4c0,0.1,0,0.3,0,0.4c0,0.1,0,0.3,0,0.4c0,0.1,0,0.3,0,0.4c0,0.1,0,0.3,0,0.4   c0,0.1,0,0.3,0,0.4c0,0.1,0,0.3,0,0.4s0,0.3,0,0.4c0,0.1,0,0.3,0,0.4s0,0.3,0,0.4c0,0.1,0,0.3,0,0.4c0,0.1,0,0.3,0,0.4   c0,0.1,0,0.3,0,0.4c0,0.1,0,0.3,0,0.4c0,0.1,0,0.3,0,0.4c0,0.1,0,0.3,0,0.4c0,0.1,0,0.3,0,0.4c0,0.1,0,0.3,0,0.4c0,0.1,0,0.3,0,0.4   s0,0.3,0,0.4c0,0.1,0,0.3,0,0.4s0,0.3,0,0.4c0,0.1,0,0.3,0,0.4c0,0.1,0,0.3,0,0.4c0,0.1,0,0.3,0,0.4c0,0.1,0,0.3,0,0.4   c0,0.1,0,0.3,0,0.4c0,0.1,0,0.3,0,0.4c0,0.1,0,0.3,0,0.4c0,0.1,0,0.3,0,0.4c0,0.1,0,0.3,0,0.4c0,0.1,0,0.3,0,0.4c0,0.1,0,0.3,0,0.4   s0,0.3,0,0.4c0,0.1,0,0.3,0,0.4s0,0.3,0,0.4c0,0.1,0,0.3,0,0.4s0,0.3,0,0.4c0,0.1,0,0.3,0,0.4c0,0.1,0,0.3,0,0.4c0,0.1,0,0.3,0,0.4   c0,0.1,0,0.3,0,0.4c0,0.1,0,0.3,0,0.4c0,0.1,0,0.3,0,0.4c0,0.1,0,0.3,0,0.4c0,0.1,0,0.3,0,0.4c0,0.1,0,0.3,0,0.4s0,0.3,0,0.4   c0,0.1,0,0.3,0,0.4c0,0.1,0,0.3,0,0.4c0,0.1,0,0.3,0,0.4s0,0.3,0,0.4c0,0.1,0,0.3,0,0.4c0,0.1,0,0.2,0,0.3   c-0.9-0.7-1.8-1.5-2.6-2.2c-5.4-4.6-10.5-9.5-15.5-14.5V140.5H113.8z" fill="#AF5417"/><path d="M126,135.3c0,9.7-4.8,18.3-12.3,23.5v11.5c-5,2.4-10.6,3.7-16.5,3.7c-5.8,0-11.3-1.3-16.3-3.6V159   c-7.5-5.2-12.5-13.9-12.5-23.7c0-15.9,12.9-28.8,28.8-28.8S126,119.4,126,135.3z" opacity="0.2"/><path d="M126,135.3c0,9.7-4.8,18.3-12.3,23.5c-4.7,3.3-10.4,5.2-16.5,5.2c-6,0-11.6-1.9-16.3-5   c-7.5-5.2-12.5-13.9-12.5-23.7c0-15.9,12.9-28.8,28.8-28.8S126,119.4,126,135.3z" fill="#ED1111"/><path d="M431.3,140.5v283.2c-5,5.2-10.3,10.1-15.7,14.8c-0.9,0.8-1.7,1.5-2.6,2.2c0-0.1,0-0.2,0-0.3   c0-0.1,0-0.3,0-0.4c0-0.1,0-0.3,0-0.4s0-0.3,0-0.4c0-0.1,0-0.3,0-0.4c0-0.1,0-0.3,0-0.4c0-0.1,0-0.3,0-0.4c0-0.1,0-0.3,0-0.4   c0-0.1,0-0.3,0-0.4c0-0.1,0-0.3,0-0.4c0-0.1,0-0.3,0-0.4c0-0.1,0-0.3,0-0.4c0-0.1,0-0.3,0-0.4c0-0.1,0-0.3,0-0.4c0-0.1,0-0.3,0-0.4   s0-0.3,0-0.4c0-0.1,0-0.3,0-0.4s0-0.3,0-0.4c0-0.1,0-0.3,0-0.4s0-0.3,0-0.4c0-0.1,0-0.3,0-0.4c0-0.1,0-0.3,0-0.4c0-0.1,0-0.3,0-0.4   c0-0.1,0-0.3,0-0.4c0-0.1,0-0.3,0-0.4c0-0.1,0-0.3,0-0.4c0-0.1,0-0.3,0-0.4c0-0.1,0-0.3,0-0.4c0-0.1,0-0.3,0-0.4s0-0.3,0-0.4   c0-0.1,0-0.3,0-0.4c0-0.1,0-0.3,0-0.4c0-0.1,0-0.3,0-0.4s0-0.3,0-0.4c0-0.1,0-0.3,0-0.4c0-0.1,0-0.3,0-0.4c0-0.1,0-0.3,0-0.4   c0-0.1,0-0.3,0-0.4c0-0.1,0-0.3,0-0.4c0-0.1,0-0.3,0-0.4c0-0.1,0-0.3,0-0.4s0-0.3,0-0.4c0-0.1,0-0.3,0-0.4s0-0.3,0-0.4   c0-0.1,0-0.3,0-0.4s0-0.3,0-0.4c0-0.1,0-0.3,0-0.4c0-0.1,0-0.3,0-0.4c0-0.1,0-0.3,0-0.4c0-0.1,0-0.3,0-0.4c0-0.1,0-0.3,0-0.4   c0-0.1,0-0.3,0-0.4c0-0.1,0-0.3,0-0.4c0-0.1,0-0.3,0-0.4c0-0.1,0-0.3,0-0.4s0-0.3,0-0.4c0-0.1,0-0.3,0-0.4s0-0.3,0-0.4   c0-0.1,0-0.3,0-0.4c0-9.5-5.3-17.8-14.4-24.9V140.5H431.3z" fill="#AF5417"/><g><path d="M113.8,392.2v60c-5-3.6-9.9-7.4-14.7-11.4c0-0.1,0-0.2,0-0.3c0-0.1,0-0.3,0-0.4c0-0.1,0-0.3,0-0.4    s0-0.3,0-0.4c0-0.1,0-0.3,0-0.4c0-0.1,0-0.3,0-0.4c0-0.1,0-0.3,0-0.4s0-0.3,0-0.4c0-0.1,0-0.3,0-0.4c0-0.1,0-0.3,0-0.4    c0-0.1,0-0.3,0-0.4c0-0.1,0-0.3,0-0.4c0-0.1,0-0.3,0-0.4c0-0.1,0-0.3,0-0.4c0-0.1,0-0.3,0-0.4c0-0.1,0-0.3,0-0.4    c0-0.1,0-0.3,0-0.4s0-0.3,0-0.4c0-0.1,0-0.3,0-0.4s0-0.3,0-0.4c0-0.1,0-0.3,0-0.4s0-0.3,0-0.4c0-0.1,0-0.3,0-0.4    c0-0.1,0-0.3,0-0.4c0-0.1,0-0.3,0-0.4c0-0.1,0-0.3,0-0.4c0-0.1,0-0.3,0-0.4c0-0.1,0-0.3,0-0.4c0-0.1,0-0.3,0-0.4    c0-0.1,0-0.3,0-0.4c0-0.1,0-0.3,0-0.4c0-0.1,0-0.3,0-0.4c0-0.1,0-0.3,0-0.4s0-0.3,0-0.4c0-0.1,0-0.3,0-0.4s0-0.3,0-0.4    c0-0.1,0-0.3,0-0.4c0-0.1,0-0.3,0-0.4c0-0.1,0-0.3,0-0.4c0-0.1,0-0.3,0-0.4c0-0.1,0-0.3,0-0.4c0-0.1,0-0.3,0-0.4    c0-0.1,0-0.3,0-0.4c0-0.1,0-0.3,0-0.4c0-0.1,0-0.3,0-0.4s0-0.3,0-0.4c0-0.1,0-0.3,0-0.4s0-0.3,0-0.4c0-0.1,0-0.3,0-0.4    c0-0.1,0-0.3,0-0.4c0-0.1,0-0.3,0-0.4c0-0.1,0-0.3,0-0.4c0-0.1,0-0.3,0-0.4c0-0.1,0-0.3,0-0.4c0-0.1,0-0.3,0-0.4    c0-0.1,0-0.3,0-0.4c0-0.1,0-0.3,0-0.4c0-0.1,0-0.3,0-0.4c0-0.1,0-0.3,0-0.4C99.1,407.7,104.4,399.3,113.8,392.2z" fill="#893D09"/><path d="M412.9,418.1c0,0.1,0,0.3,0,0.4c0,0.1,0,0.3,0,0.4s0,0.3,0,0.4c0,0.1,0,0.3,0,0.4c0,0.1,0,0.3,0,0.4    c0,0.1,0,0.3,0,0.4c0,0.1,0,0.3,0,0.4c0,0.1,0,0.3,0,0.4c0,0.1,0,0.3,0,0.4c0,0.1,0,0.3,0,0.4c0,0.1,0,0.3,0,0.4    c0,0.1,0,0.3,0,0.4s0,0.3,0,0.4c0,0.1,0,0.3,0,0.4s0,0.3,0,0.4c0,0.1,0,0.3,0,0.4s0,0.3,0,0.4c0,0.1,0,0.3,0,0.4    c0,0.1,0,0.3,0,0.4c0,0.1,0,0.3,0,0.4c0,0.1,0,0.3,0,0.4c0,0.1,0,0.3,0,0.4c0,0.1,0,0.3,0,0.4c0,0.1,0,0.3,0,0.4s0,0.3,0,0.4    c0,0.1,0,0.3,0,0.4c0,0.1,0,0.3,0,0.4c0,0.1,0,0.3,0,0.4s0,0.3,0,0.4c0,0.1,0,0.3,0,0.4c0,0.1,0,0.3,0,0.4c0,0.1,0,0.3,0,0.4    c0,0.1,0,0.3,0,0.4c0,0.1,0,0.3,0,0.4c0,0.1,0,0.3,0,0.4c0,0.1,0,0.3,0,0.4c0,0.1,0,0.3,0,0.4c0,0.1,0,0.3,0,0.4s0,0.3,0,0.4    c0,0.1,0,0.3,0,0.4s0,0.3,0,0.4c0,0.1,0,0.3,0,0.4s0,0.3,0,0.4c0,0.1,0,0.3,0,0.4c0,0.1,0,0.3,0,0.4c0,0.1,0,0.3,0,0.4    c0,0.1,0,0.3,0,0.4c0,0.1,0,0.3,0,0.4c0,0.1,0,0.3,0,0.4c0,0.1,0,0.3,0,0.4c0,0.1,0,0.3,0,0.4c0,0.1,0,0.3,0,0.4    c0,0.1,0,0.3,0,0.4c0,0.1,0,0.3,0,0.4s0,0.3,0,0.4c0,0.1,0,0.3,0,0.4c0,0.1,0,0.2,0,0.3c-4.7,3.9-9.5,7.6-14.4,11.2v-59.6    c9.2,7.1,14.4,15.4,14.4,24.9c0,0.1,0,0.3,0,0.4C412.9,417.8,412.9,418,412.9,418.1z" fill="#893D09"/></g><path d="M443.5,135.3c0,9.7-4.8,18.3-12.3,23.5v11.5c-5,2.4-10.6,3.7-16.5,3.7c-5.8,0-11.3-1.3-16.3-3.6V159   c-7.5-5.2-12.5-13.9-12.5-23.7c0-15.9,12.9-28.8,28.8-28.8S443.5,119.4,443.5,135.3z" opacity="0.2"/><path d="M443.5,135.3c0,9.7-4.8,18.3-12.3,23.5c-4.7,3.3-10.4,5.2-16.5,5.2c-6,0-11.6-1.9-16.3-5   c-7.5-5.2-12.5-13.9-12.5-23.7c0-15.9,12.9-28.8,28.8-28.8S443.5,119.4,443.5,135.3z" fill="#ED1111"/><path d="M97.3,180.4l-67,67H11.6c0.2-7.4,0.7-14.7,1.5-21.9l45.1-45.1H97.3z" fill="#353535"/><path d="M500,238.6l-8.8,8.8h-39l43.2-43.2c0.1,0.4,0.2,0.8,0.3,1.3C497.9,216.2,499.3,227.3,500,238.6z" fill="#353535"/><path d="M500.4,247.4H492l8-8C500.2,242,500.3,244.7,500.4,247.4z" fill="#FFFFFF"/><path d="M57.3,180.4l-44,44c1.8-15.1,5-29.8,9.4-44H57.3z" fill="#FFFFFF"/><polygon fill="#353535" points="174.3,180.4 107.3,247.4 68.3,247.4 135.3,180.4  "/><polygon fill="#353535" points="251.3,180.4 184.3,247.4 145.3,247.4 212.3,180.4  "/><polygon fill="#353535" points="328.3,180.4 261.3,247.4 222.3,247.4 289.3,180.4  "/><polygon fill="#353535" points="405.3,180.4 338.3,247.4 299.3,247.4 366.3,180.4  "/><polygon fill="#353535" points="482.3,180.4 415.3,247.4 376.3,247.4 443.3,180.4  "/><polygon fill="#FFFFFF" points="135.8,180.4 68.8,247.4 29.8,247.4 96.8,180.4  "/><polygon fill="#FFFFFF" points="212.8,180.4 145.8,247.4 106.8,247.4 173.8,180.4  "/><polygon fill="#FFFFFF" points="289.8,180.4 222.8,247.4 183.8,247.4 250.8,180.4  "/><polygon fill="#FFFFFF" points="366.8,180.4 299.8,247.4 260.8,247.4 327.8,180.4  "/><polygon fill="#FFFFFF" points="443.8,180.4 376.8,247.4 337.8,247.4 404.8,180.4  "/><path d="M495.7,205.4l-42,42h-39l67-67h7.6c2.4,7.8,4.5,15.7,6.1,23.8C495.6,204.5,495.7,205,495.7,205.4z" fill="#FFFFFF"/><path d="M402.9,417.7c0-0.1,0-0.3,0-0.4c0-25.4-65.8-45.9-146.9-45.9s-146.9,20.6-146.9,45.9c0,0.1,0,0.3,0,0.4   c0,0.1,0,0.3,0,0.4c0,0.1,0,0.3,0,0.4c0,0.1,0,0.3,0,0.4c0,0.1,0,0.3,0,0.4c0,0.1,0,0.3,0,0.4s0,0.3,0,0.4c0,0.1,0,0.3,0,0.4   s0,0.3,0,0.4c0,0.1,0,0.3,0,0.4s0,0.3,0,0.4c0,0.1,0,0.3,0,0.4c0,0.1,0,0.3,0,0.4c0,0.1,0,0.3,0,0.4c0,0.1,0,0.3,0,0.4   c0,0.1,0,0.3,0,0.4c0,0.1,0,0.3,0,0.4c0,0.1,0,0.3,0,0.4c0,0.1,0,0.3,0,0.4c0,0.1,0,0.3,0,0.4c0,0.1,0,0.3,0,0.4c0,0.1,0,0.3,0,0.4   c0,0.1,0,0.3,0,0.4c0,0.1,0,0.3,0,0.4s0,0.3,0,0.4c0,0.1,0,0.3,0,0.4s0,0.3,0,0.4c0,0.1,0,0.3,0,0.4s0,0.3,0,0.4c0,0.1,0,0.3,0,0.4   c0,0.1,0,0.3,0,0.4c0,0.1,0,0.3,0,0.4c0,0.1,0,0.3,0,0.4c0,0.1,0,0.3,0,0.4c0,0.1,0,0.3,0,0.4c0,0.1,0,0.3,0,0.4c0,0.1,0,0.3,0,0.4   c0,0.1,0,0.3,0,0.4c0,0.1,0,0.3,0,0.4c0,0.1,0,0.3,0,0.4c0,0.1,0,0.3,0,0.4c0,0.1,0,0.3,0,0.4s0,0.3,0,0.4c0,0.1,0,0.3,0,0.4   s0,0.3,0,0.4c0,0.1,0,0.3,0,0.4s0,0.3,0,0.4c0,0.1,0,0.3,0,0.4c0,0.1,0,0.3,0,0.4c0,0.1,0,0.3,0,0.4c0,0.1,0,0.3,0,0.4   c0,0.1,0,0.3,0,0.4c0,0.1,0,0.3,0,0.4c0,0.1,0,0.3,0,0.4c0,0.1,0,0.3,0,0.4c0,0.1,0,0.3,0,0.4c0,0.1,0,0.3,0,0.4c0,0.1,0,0.3,0,0.4   c0,0.1,0,0.3,0,0.4c0,0.1,0,0.3,0,0.4s0,0.3,0,0.4c0,0.1,0,0.3,0,0.4s0,0.3,0,0.4c0,0.1,0,0.3,0,0.4s0,0.3,0,0.4c0,0.1,0,0.3,0,0.4   c0,0.1,0,0.3,0,0.4c0,0.1,0,0.3,0,0.4c0,0.1,0,0.3,0,0.4c0,0.1,0,0.3,0,0.4c0,0.1,0,0.3,0,0.4c0,0.1,0,0.3,0,0.4c0,0.1,0,0.3,0,0.4   c0,0.1,0,0.3,0,0.4c0,0.1,0,0.3,0,0.4c0,0.1,0,0.3,0,0.4s0,0.3,0,0.4c0,0.1,0,0.3,0,0.4s0,0.3,0,0.4c0,0.1,0,0.3,0,0.4s0,0.3,0,0.4   c0,0.1,0,0.3,0,0.4s0,0.3,0,0.4c0,0.1,0,0.3,0,0.4c0,0.1,0,0.3,0,0.4c0,0.1,0,0.3,0,0.4c0,0.1,0,0.3,0,0.4c0,0.1,0,0.3,0,0.4   c0,0.1,0,0.3,0,0.4c0,0.1,0,0.3,0,0.4c0,0.1,0,0.3,0,0.4c0,0.1,0,0.3,0,0.4c0,0.1,0,0.3,0,0.4c0,0.1,0,0.3,0,0.4s0,0.3,0,0.4   c0,0.1,0,0.3,0,0.4s0,0.3,0,0.4c0,0.1,0,0.3,0,0.4s0,0.3,0,0.4c0,0.1,0,0.3,0,0.4c0,25.4,65.8,45.9,146.9,45.9   s146.9-20.6,146.9-45.9c0-0.1,0-0.3,0-0.4c0-0.1,0-0.3,0-0.4s0-0.3,0-0.4c0-0.1,0-0.3,0-0.4s0-0.3,0-0.4c0-0.1,0-0.3,0-0.4   s0-0.3,0-0.4c0-0.1,0-0.3,0-0.4c0-0.1,0-0.3,0-0.4c0-0.1,0-0.3,0-0.4c0-0.1,0-0.3,0-0.4c0-0.1,0-0.3,0-0.4c0-0.1,0-0.3,0-0.4   c0-0.1,0-0.3,0-0.4c0-0.1,0-0.3,0-0.4c0-0.1,0-0.3,0-0.4c0-0.1,0-0.3,0-0.4c0-0.1,0-0.3,0-0.4s0-0.3,0-0.4c0-0.1,0-0.3,0-0.4   s0-0.3,0-0.4c0-0.1,0-0.3,0-0.4s0-0.3,0-0.4c0-0.1,0-0.3,0-0.4s0-0.3,0-0.4c0-0.1,0-0.3,0-0.4c0-0.1,0-0.3,0-0.4c0-0.1,0-0.3,0-0.4   c0-0.1,0-0.3,0-0.4c0-0.1,0-0.3,0-0.4c0-0.1,0-0.3,0-0.4c0-0.1,0-0.3,0-0.4c0-0.1,0-0.3,0-0.4c0-0.1,0-0.3,0-0.4c0-0.1,0-0.3,0-0.4   c0-0.1,0-0.3,0-0.4s0-0.3,0-0.4c0-0.1,0-0.3,0-0.4s0-0.3,0-0.4c0-0.1,0-0.3,0-0.4s0-0.3,0-0.4c0-0.1,0-0.3,0-0.4c0-0.1,0-0.3,0-0.4   c0-0.1,0-0.3,0-0.4c0-0.1,0-0.3,0-0.4c0-0.1,0-0.3,0-0.4c0-0.1,0-0.3,0-0.4c0-0.1,0-0.3,0-0.4c0-0.1,0-0.3,0-0.4c0-0.1,0-0.3,0-0.4   c0-0.1,0-0.3,0-0.4c0-0.1,0-0.3,0-0.4c0-0.1,0-0.3,0-0.4c0-0.1,0-0.3,0-0.4s0-0.3,0-0.4c0-0.1,0-0.3,0-0.4s0-0.3,0-0.4   c0-0.1,0-0.3,0-0.4s0-0.3,0-0.4c0-0.1,0-0.3,0-0.4c0-0.1,0-0.3,0-0.4c0-0.1,0-0.3,0-0.4c0-0.1,0-0.3,0-0.4c0-0.1,0-0.3,0-0.4   c0-0.1,0-0.3,0-0.4c0-0.1,0-0.3,0-0.4c0-0.1,0-0.3,0-0.4c0-0.1,0-0.3,0-0.4c0-0.1,0-0.3,0-0.4c0-0.1,0-0.3,0-0.4c0-0.1,0-0.3,0-0.4   c0-0.1,0-0.3,0-0.4s0-0.3,0-0.4c0-0.1,0-0.3,0-0.4s0-0.3,0-0.4c0-0.1,0-0.3,0-0.4s0-0.3,0-0.4c0-0.1,0-0.3,0-0.4c0-0.1,0-0.3,0-0.4   c0-0.1,0-0.3,0-0.4c0-0.1,0-0.3,0-0.4c0-0.1,0-0.3,0-0.4c0-0.1,0-0.3,0-0.4c0-0.1,0-0.3,0-0.4c0-0.1,0-0.3,0-0.4c0-0.1,0-0.3,0-0.4   c0-0.1,0-0.3,0-0.4c0-0.1,0-0.3,0-0.4c0-0.1,0-0.3,0-0.4c0-0.1,0-0.3,0-0.4s0-0.3,0-0.4c0-0.1,0-0.3,0-0.4s0-0.3,0-0.4   c0-0.1,0-0.3,0-0.4s0-0.3,0-0.4c0-0.1,0-0.3,0-0.4c0-0.1,0-0.3,0-0.4c0-0.1,0-0.3,0-0.4C402.9,417.9,402.9,417.8,402.9,417.7z" fill="#FF221D"/><g><g><ellipse cx="256" cy="417.3" fill="#FF221D" rx="146.9" ry="45.9"/></g></g><polygon opacity="0.2" points="322.9,247.4 189.1,247.4 191.9,239.8 192.2,239 213.6,180.4 298.4,180.4 306.3,201.9 306.4,202.2    316.6,230 316.7,230.4  "/><path d="M374,416.2L374,416.2c0,10.5-52.8,18.9-118,18.9s-118-8.5-118-18.9v0c0-0.7,0.3-1.4,0.8-2.1l18-49.1   l12.5-34.1l24.5-67l13-35.6l26-71l8.5-23.3c2.3-6.2,8.1-10.3,14.7-10.3c6.6,0,12.5,4.1,14.7,10.3l8.5,23.3l26,71l13,35.6l24.5,67   l12.5,34.1l18,49.1C373.7,414.7,374,415.4,374,416.2z" fill="#FF221D"/><path d="M355.3,364.9c-21,5.2-57.6,8.7-99.3,8.7s-78.3-3.4-99.3-8.7l12.5-34.1c21.6,3.7,52.5,6.1,86.8,6.1   s65.2-2.3,86.8-6.1L355.3,364.9z" fill="#E8E8E8"/><path d="M318.3,263.8c-18.1,1.8-39.4,2.8-62.3,2.8s-44.2-1-62.3-2.8l13-35.6c15,1.1,31.7,1.7,49.2,1.7   s34.2-0.6,49.2-1.7L318.3,263.8z" fill="#E8E8E8"/><path d="M279.3,157.1c-7.5,0.2-15.3,0.4-23.3,0.4c-8,0-15.7-0.1-23.3-0.4l8.5-23.3c2.3-6.2,8.1-10.3,14.7-10.3   c6.6,0,12.5,4.1,14.7,10.3L279.3,157.1z" fill="#E8E8E8"/></g></svg>